<svg width="138" height="30" viewBox="0 0 138 30" fill="none" xmlns="http://www.w3.org/2000/svg">
<path d="M9.00406 15.378C6.8932 15.378 5.77607 16.2882 4.98967 16.9918L1.88548 13.681C3.54105 12.0669 5.40357 10.7838 9.54212 10.7838C14.0532 10.7838 17.4885 13.2258 17.4885 18.7716V28.787H11.9423L12.0665 26.345C10.742 28.3731 9.21062 29.1595 6.85181 29.1595C3.62383 29.1595 0.643799 27.7109 0.643799 23.6137C0.643799 19.8477 3.49966 18.3163 7.84516 18.3163H11.9423C11.8595 16.2886 10.8662 15.378 9.00406 15.378ZM8.13488 21.627C6.72764 21.627 6.10718 22.2479 6.10718 23.2416C6.10718 24.2346 6.93497 24.814 8.50738 24.814C10.7838 24.814 11.9423 23.821 11.9423 22.331V21.627H8.13488Z" fill="white"/>
<path d="M29.7397 24.5243C31.7674 24.5243 33.2988 23.7379 34.168 23.117L37.355 26.5524C35.658 28.0424 33.5058 29.1599 29.8225 29.1599C23.5317 29.1599 19.4756 25.3524 19.4756 19.9301C19.4756 14.5912 23.7387 10.7838 29.2017 10.7838C35.5339 10.7838 38.9688 15.5018 38.5549 21.6684H25.1869C25.725 23.4896 27.215 24.5243 29.7397 24.5243ZM32.9263 18.4404C32.678 16.4955 31.4367 15.3366 29.2431 15.3366C27.0494 15.3366 25.5594 16.3296 25.1045 18.4404H32.9263Z" fill="white"/>
<path d="M40.7079 11.1567H46.2951L46.2123 14.3437C47.495 11.446 49.5644 10.7842 51.3856 10.7842C52.5445 10.7842 53.4137 11.1153 54.1169 11.4878L52.3372 16.5783C51.6335 16.2476 50.9713 16.0406 50.1853 16.0406C47.6605 16.0406 46.2947 17.1991 46.2947 20.9656V28.7878H40.7075V11.1567H40.7079Z" fill="white"/>
<path d="M56.1046 11.1567H61.6918L61.609 14.3437C62.8917 11.446 64.9612 10.7842 66.7823 10.7842C67.9412 10.7842 68.8104 11.1153 69.5136 11.4878L67.7339 16.5783C67.0303 16.2476 66.368 16.0406 65.582 16.0406C63.0573 16.0406 61.6914 17.1991 61.6914 20.9656V28.7878H56.1042V11.1567H56.1046Z" fill="white"/>
<path d="M69.4321 20.0132C69.4321 14.6326 73.6952 10.7838 79.1582 10.7838C84.6212 10.7838 88.8426 14.6326 88.8426 20.0132C88.8426 25.3524 84.6212 29.1599 79.1582 29.1599C73.6948 29.1599 69.4321 25.3524 69.4321 20.0132ZM83.1312 20.0132C83.1312 17.3643 81.6412 15.585 79.1582 15.585C76.6749 15.585 75.1438 17.3647 75.1438 20.0132C75.1438 22.6204 76.6749 24.4415 79.1582 24.4415C81.6412 24.4415 83.1312 22.6204 83.1312 20.0132Z" fill="white"/>
<path d="M89.092 28.3321L96.7487 15.6673H90.044V11.1563H105.274V11.6112L97.4519 24.2759H104.612V28.787H89.092V28.3321Z" fill="white"/>
<path d="M105.73 28.3321L113.387 15.6673H106.682V11.1563H121.912V11.6112L114.09 24.2759H121.25V28.787H105.73V28.3321H105.73Z" fill="white"/>
<path d="M130.44 0.927826H130.771L137.599 4.85943V10.2397L130.605 6.18351L123.486 10.2397V4.85981L130.44 0.927826Z" fill="white"/>
</svg>
